static_grf.mot
version=1
nRows=10
nColumns 19
inDegrees=yes
endheader
time	1_ground_force_vx	1_ground_force_vy	1_ground_force_vz	1_ground_force_px	1_ground_force_py	1_ground_force_pz	1_ground_torque_x	1_ground_torque_y	1_ground_torque_z	2_ground_force_vx	2_ground_force_vy	2_ground_force_vz	2_ground_force_px	2_ground_force_py	2_ground_force_pz	2_ground_torque_x	2_ground_torque_y	2_ground_torque_z
            0.902500	          -10.812621	          425.596572	          -38.181628	           -0.255878	            0.006040	           -0.363674	           -0.058419	            2.299441	           -0.206290	            8.319414	          477.574004	           41.776747	           -0.299785	            0.005468	           -0.716455	           -0.003223	           -0.185001	           -0.016183
            0.903000	          -10.996256	          427.038662	          -38.174989	           -0.255822	            0.006038	           -0.363133	           -0.059030	            2.292422	           -0.204930	            8.037088	          477.940495	           42.012822	           -0.299617	            0.005469	           -0.716584	           -0.002848	           -0.169346	           -0.014886
            0.903500	          -10.720920	          426.137220	          -38.133677	           -0.255995	            0.006039	           -0.363360	           -0.060371	            2.399626	           -0.214735	            7.990903	          477.756124	           42.012184	           -0.299572	            0.005470	           -0.716616	           -0.002073	           -0.123944	           -0.010899
            0.904000	          -11.087732	          427.759117	          -38.034098	           -0.255650	            0.006037	           -0.362986	           -0.061104	            2.357357	           -0.209604	            8.087240	          477.020067	           41.962588	           -0.299832	            0.005468	           -0.716317	           -0.002300	           -0.135678	           -0.011935
            0.904500	          -10.904633	          426.137775	          -38.270793	           -0.256065	            0.006039	           -0.363329	           -0.060347	            2.358259	           -0.211792	            7.896600	          477.939485	           42.153666	           -0.299747	            0.005469	           -0.716503	           -0.001690	           -0.102267	           -0.009020
            0.905000	          -10.904681	          425.777440	          -38.318191	           -0.255821	            0.006040	           -0.363514	           -0.060123	            2.347508	           -0.211266	            8.036464	          478.124301	           42.107335	           -0.299555	            0.005470	           -0.716668	           -0.002579	           -0.153421	           -0.013511
            0.905500	          -11.224788	          427.037438	          -37.899285	           -0.255896	            0.006037	           -0.362931	           -0.059821	            2.275842	           -0.201979	            7.990197	          477.940660	           41.918985	           -0.299704	            0.005469	           -0.716582	           -0.002061	           -0.123259	           -0.010811
            0.906000	          -10.905367	          427.040056	          -38.496204	           -0.255967	            0.006037	           -0.362992	           -0.060585	            2.372427	           -0.213866	            7.991567	          477.571983	           42.011527	           -0.299871	            0.005468	           -0.716571	           -0.002441	           -0.145845	           -0.012830
            0.906500	          -11.041641	          425.776430	          -38.088574	           -0.255710	            0.006038	           -0.363227	           -0.060322	            2.326094	           -0.208085	            8.322113	          476.837107	           41.867975	           -0.299928	            0.005467	           -0.716314	           -0.003299	           -0.189045	           -0.016599
            0.907000	          -11.225079	          426.136926	          -38.086573	           -0.256096	            0.006039	           -0.363272	           -0.062604	            2.376632	           -0.212415	            8.179029	          477.572158	           42.152232	           -0.299902	            0.005468	           -0.716573	           -0.003220	           -0.188016	           -0.016595
